<svg width="111" height="111" viewBox="0 0 111 111" fill="none" xmlns="http://www.w3.org/2000/svg">
<circle cx="55.5" cy="55.5" r="55.5" fill="#222222"/>
<path d="M82.211 80.789C84.4202 80.789 86.2382 78.9905 85.9466 76.8007C85.6008 74.2043 84.918 71.6582 83.9113 69.2278C82.3931 65.5624 80.1678 62.232 77.3624 59.4266C74.5571 56.6213 71.2266 54.3959 67.5613 52.8777C63.8959 51.3594 59.9674 50.578 56 50.578C52.0326 50.578 48.1041 51.3594 44.4388 52.8777C40.7734 54.3959 37.443 56.6213 34.6376 59.4266C31.8322 62.232 29.6069 65.5624 28.0887 69.2278C27.082 71.6582 26.3992 74.2043 26.0534 76.8007C25.7618 78.9905 27.5799 80.789 29.789 80.789L56 80.789H82.211Z" fill="white"/>
<circle cx="55.5917" cy="38.7385" r="14.7385" fill="white" stroke="#222222" stroke-width="4"/>
</svg>
